<?xml version="1.0" encoding="utf-8"?>
<!-- Generator: Adobe Illustrator 21.0.0, SVG Export Plug-In . SVG Version: 6.00 Build 0)  -->
<svg version="1.1" id="Layer_1" xmlns="http://www.w3.org/2000/svg" xmlns:xlink="http://www.w3.org/1999/xlink" x="0px" y="0px"
	 viewBox="0 0 113.3 114.7" style="enable-background:new 0 0 113.3 114.7;" xml:space="preserve">
<style type="text/css">
	.st0{fill:#2F00FF;}
</style>
<g>
	<path class="st0" d="M43.5,0.1h-27C7.4,0.1,0,7.5,0,16.6v22c0,4.1,5,6,7.8,3c11-12.1,24.5-23.4,38.3-33.4
		C49.6,5.6,47.8,0.1,43.5,0.1z"/>
	<path class="st0" d="M47.2,114.1h49c9.1,0,16.5-7.4,16.5-16.5V46.7c0-3.9-4.6-5.9-7.5-3.3C80.5,66,59.4,88.8,43.8,106.6
		C41.3,109.5,43.4,114.1,47.2,114.1z"/>
	<path class="st0" d="M112.7,24v-7.4c0-9.1-7.4-16.5-16.5-16.5H77.1c-1.1,0-2.2,0.4-3,1.2c-31.2,28.4-57,57.3-73,76.5
		c-0.7,0.8-1,1.8-1,2.9v17c0,9.1,7.4,16.5,16.5,16.5l0,0c1.8,0,3.4-1,4.1-2.7c14.5-33,57.3-63.9,89.8-83.7
		C111.8,27,112.7,25.5,112.7,24z"/>
</g>
</svg>
